<?xml version="1.0" encoding="UTF-8" standalone="no"?>
<!DOCTYPE svg PUBLIC "-//W3C//DTD SVG 1.1//EN"
 "http://www.w3.org/Graphics/SVG/1.1/DTD/svg11.dtd">
<!-- Generated by graphviz version 5.0.0 (20220707.1540)
 -->
<!-- Title: StorageDiagram Pages: 1 -->
<svg width="1648pt" height="162pt"
 viewBox="0.00 0.00 1647.84 162.20" xmlns="http://www.w3.org/2000/svg" xmlns:xlink="http://www.w3.org/1999/xlink">
<g id="graph0" class="graph" transform="scale(1 1) rotate(0) translate(4 158.2)">
<title>StorageDiagram</title>
<polygon fill="white" stroke="transparent" points="-4,4 -4,-158.2 1643.84,-158.2 1643.84,4 -4,4"/>
<!-- 3 -->
<g id="node1" class="node">
<title>3</title>
<polygon fill="#f2f2f2" stroke="black" points="0,-79.3 0,-153.7 426.86,-153.7 426.86,-79.3 0,-79.3"/>
<text text-anchor="middle" x="213.43" y="-137.1" font-family="Courier New" font-size="14.00">DynamicArrayOfStructsStorage &lt;&lt;Contract&gt;&gt;</text>
<polyline fill="none" stroke="black" points="0,-128.9 426.86,-128.9 "/>
<text text-anchor="middle" x="24.8" y="-112.3" font-family="Courier New" font-size="14.00">slot</text>
<polyline fill="none" stroke="black" points="0,-104.1 49.61,-104.1 "/>
<text text-anchor="middle" x="24.8" y="-87.5" font-family="Courier New" font-size="14.00">0</text>
<polyline fill="none" stroke="black" points="49.61,-79.3 49.61,-128.9 "/>
<text text-anchor="middle" x="238.23" y="-112.3" font-family="Courier New" font-size="14.00">type: &lt;inherited contract&gt;.variable (bytes)</text>
<polyline fill="none" stroke="black" points="49.61,-104.1 426.86,-104.1 "/>
<text text-anchor="middle" x="238.03" y="-87.5" font-family="Courier New" font-size="14.00">CustomStruct[]: dynamicArrayOfStructs (32)</text>
</g>
<!-- 2 -->
<g id="node3" class="node">
<title>2</title>
<polygon fill="#f2f2f2" stroke="black" points="462.86,-45.9 462.86,-137.1 1033.35,-137.1 1033.35,-45.9 462.86,-45.9"/>
<text text-anchor="middle" x="748.11" y="-120.5" font-family="Courier New" font-size="14.00">CustomStruct[]: dynamicArrayOfStructs &lt;&lt;Array&gt;&gt;</text>
<text text-anchor="middle" x="748.11" y="-103.7" font-family="Courier New" font-size="14.00">0x290decd9548b62a8d60345a988386fc84ba6bc95484008f6362f93160ef3e563</text>
<polyline fill="none" stroke="black" points="462.86,-95.5 1033.35,-95.5 "/>
<text text-anchor="middle" x="571.57" y="-78.9" font-family="Courier New" font-size="14.00">offset</text>
<polyline fill="none" stroke="black" points="462.86,-70.7 680.27,-70.7 "/>
<text text-anchor="middle" x="571.57" y="-54.1" font-family="Courier New" font-size="14.00">0&#45;1</text>
<polyline fill="none" stroke="black" points="680.27,-45.9 680.27,-95.5 "/>
<text text-anchor="middle" x="856.69" y="-78.9" font-family="Courier New" font-size="14.00">type: variable (bytes)</text>
<polyline fill="none" stroke="black" points="680.27,-70.7 1033.1,-70.7 "/>
<text text-anchor="middle" x="856.68" y="-54.1" font-family="Courier New" font-size="14.00">CustomStruct (64)</text>
</g>
<!-- 3&#45;&gt;2 -->
<g id="edge1" class="edge">
<title>3:5&#45;&gt;2</title>
<path fill="none" stroke="black" d="M426.86,-91.5C435.26,-91.5 443.77,-91.5 452.37,-91.5"/>
<polygon fill="black" stroke="black" points="452.49,-95 462.49,-91.5 452.49,-88 452.49,-95"/>
</g>
<!-- 1 -->
<g id="node2" class="node">
<title>1</title>
<polygon fill="#f2f2f2" stroke="black" points="1069.35,-0.5 1069.35,-116.5 1639.84,-116.5 1639.84,-0.5 1069.35,-0.5"/>
<text text-anchor="middle" x="1354.6" y="-99.9" font-family="Courier New" font-size="14.00">CustomStruct &lt;&lt;Struct&gt;&gt;</text>
<text text-anchor="middle" x="1354.6" y="-83.1" font-family="Courier New" font-size="14.00">0x290decd9548b62a8d60345a988386fc84ba6bc95484008f6362f93160ef3e563</text>
<polyline fill="none" stroke="black" points="1069.35,-74.9 1639.84,-74.9 "/>
<text text-anchor="middle" x="1136.56" y="-58.3" font-family="Courier New" font-size="14.00">offset</text>
<polyline fill="none" stroke="black" points="1069.35,-50.1 1203.76,-50.1 "/>
<text text-anchor="middle" x="1136.56" y="-33.5" font-family="Courier New" font-size="14.00">0</text>
<polyline fill="none" stroke="black" points="1069.35,-25.3 1203.76,-25.3 "/>
<text text-anchor="middle" x="1136.56" y="-8.7" font-family="Courier New" font-size="14.00">1</text>
<polyline fill="none" stroke="black" points="1203.76,-0.5 1203.76,-74.9 "/>
<text text-anchor="middle" x="1421.79" y="-58.3" font-family="Courier New" font-size="14.00">type: variable (bytes)</text>
<polyline fill="none" stroke="black" points="1203.76,-50.1 1639.82,-50.1 "/>
<text text-anchor="middle" x="1421.78" y="-33.5" font-family="Courier New" font-size="14.00">uint256: field0 (32)</text>
<polyline fill="none" stroke="black" points="1203.76,-25.3 1639.82,-25.3 "/>
<text text-anchor="middle" x="1312.78" y="-8.7" font-family="Courier New" font-size="14.00">uint128: field2 (16)</text>
<polyline fill="none" stroke="black" points="1421.79,-0.5 1421.79,-25.3 "/>
<text text-anchor="middle" x="1530.8" y="-8.7" font-family="Courier New" font-size="14.00">uint128: field1 (16)</text>
</g>
<!-- 2&#45;&gt;1 -->
<g id="edge2" class="edge">
<title>2:4&#45;&gt;1</title>
<path fill="none" stroke="black" d="M1033.35,-58.5C1041.75,-58.5 1050.26,-58.5 1058.86,-58.5"/>
<polygon fill="black" stroke="black" points="1058.98,-62 1068.98,-58.5 1058.98,-55 1058.98,-62"/>
</g>
</g>
</svg>
