<?xml version="1.0" encoding="UTF-8" standalone="no"?>
<!DOCTYPE svg PUBLIC "-//W3C//DTD SVG 1.1//EN"
 "http://www.w3.org/Graphics/SVG/1.1/DTD/svg11.dtd">
<!-- Generated by graphviz version 5.0.0 (20220707.1540)
 -->
<!-- Title: StorageDiagram Pages: 1 -->
<svg width="889pt" height="121pt"
 viewBox="0.00 0.00 888.52 120.80" xmlns="http://www.w3.org/2000/svg" xmlns:xlink="http://www.w3.org/1999/xlink">
<g id="graph0" class="graph" transform="scale(1 1) rotate(0) translate(4 116.8)">
<title>StorageDiagram</title>
<polygon fill="white" stroke="transparent" points="-4,4 -4,-116.8 884.52,-116.8 884.52,4 -4,4"/>
<!-- 2 -->
<g id="node1" class="node">
<title>2</title>
<polygon fill="#f2f2f2" stroke="black" points="0,-37.9 0,-112.3 426.86,-112.3 426.86,-37.9 0,-37.9"/>
<text text-anchor="middle" x="213.43" y="-95.7" font-family="Courier New" font-size="14.00">StructStorage &lt;&lt;Contract&gt;&gt;</text>
<polyline fill="none" stroke="black" points="0,-87.5 426.86,-87.5 "/>
<text text-anchor="middle" x="24.8" y="-70.9" font-family="Courier New" font-size="14.00">slot</text>
<polyline fill="none" stroke="black" points="0,-62.7 49.61,-62.7 "/>
<text text-anchor="middle" x="24.8" y="-46.1" font-family="Courier New" font-size="14.00">0&#45;1</text>
<polyline fill="none" stroke="black" points="49.61,-37.9 49.61,-87.5 "/>
<text text-anchor="middle" x="238.23" y="-70.9" font-family="Courier New" font-size="14.00">type: &lt;inherited contract&gt;.variable (bytes)</text>
<polyline fill="none" stroke="black" points="49.61,-62.7 426.86,-62.7 "/>
<text text-anchor="middle" x="237.83" y="-46.1" font-family="Courier New" font-size="14.00">CustomStruct: customStruct (64)</text>
</g>
<!-- 1 -->
<g id="node2" class="node">
<title>1</title>
<polygon fill="#f2f2f2" stroke="black" points="462.86,-0.5 462.86,-99.7 880.52,-99.7 880.52,-0.5 462.86,-0.5"/>
<text text-anchor="middle" x="671.69" y="-83.1" font-family="Courier New" font-size="14.00">CustomStruct &lt;&lt;Struct&gt;&gt;</text>
<polyline fill="none" stroke="black" points="462.86,-74.9 880.52,-74.9 "/>
<text text-anchor="middle" x="487.67" y="-58.3" font-family="Courier New" font-size="14.00">slot</text>
<polyline fill="none" stroke="black" points="462.86,-50.1 512.47,-50.1 "/>
<text text-anchor="middle" x="487.67" y="-33.5" font-family="Courier New" font-size="14.00">0</text>
<polyline fill="none" stroke="black" points="462.86,-25.3 512.47,-25.3 "/>
<text text-anchor="middle" x="487.67" y="-8.7" font-family="Courier New" font-size="14.00">1</text>
<polyline fill="none" stroke="black" points="512.47,-0.5 512.47,-74.9 "/>
<text text-anchor="middle" x="696.5" y="-58.3" font-family="Courier New" font-size="14.00">type: variable (bytes)</text>
<polyline fill="none" stroke="black" points="512.47,-50.1 880.52,-50.1 "/>
<text text-anchor="middle" x="696.48" y="-33.5" font-family="Courier New" font-size="14.00">uint256: field0 (32)</text>
<polyline fill="none" stroke="black" points="512.47,-25.3 880.52,-25.3 "/>
<text text-anchor="middle" x="604.48" y="-8.7" font-family="Courier New" font-size="14.00">uint128: field2 (16)</text>
<polyline fill="none" stroke="black" points="696.5,-0.5 696.5,-25.3 "/>
<text text-anchor="middle" x="788.51" y="-8.7" font-family="Courier New" font-size="14.00">uint128: field1 (16)</text>
</g>
<!-- 2&#45;&gt;1 -->
<g id="edge1" class="edge">
<title>2:4&#45;&gt;1</title>
<path fill="none" stroke="black" d="M426.86,-50.1C435.31,-50.1 443.92,-50.1 452.61,-50.1"/>
<polygon fill="black" stroke="black" points="452.85,-53.6 462.85,-50.1 452.85,-46.6 452.85,-53.6"/>
</g>
</g>
</svg>
